<svg preserveAspectRatio="xMidYMid meet" data-bbox="51.695 54.534 96.61 90.933" viewBox="51.695 54.534 96.61 90.933" height="200" width="200" xmlns="http://www.w3.org/2000/svg" data-type="color" role="presentation" aria-hidden="true" aria-label="">
    <g>
        <path d="M126.57 100.277h10.48v1.996h-10.48v-1.996zm0 33.763h10.48v-1.996h-10.48v1.996zm21.735-57.221v62.625a6.03 6.03 0 0 1-6.023 6.023H57.718a6.03 6.03 0 0 1-6.023-6.023V76.819a6.03 6.03 0 0 1 6.023-6.023h27.818v-9.922a6.347 6.347 0 0 1 6.34-6.34h16.248a6.347 6.347 0 0 1 6.34 6.34v2.472h-1.996v-2.472a4.349 4.349 0 0 0-4.344-4.344H91.876a4.349 4.349 0 0 0-4.344 4.344v9.922h54.75a6.03 6.03 0 0 1 6.023 6.023zm-1.996 0a4.032 4.032 0 0 0-4.027-4.027H57.718a4.032 4.032 0 0 0-4.027 4.027v10.889h84.101v1.996H53.691v49.74a4.032 4.032 0 0 0 4.027 4.027h84.565a4.032 4.032 0 0 0 4.027-4.027V76.819zM64.036 134.04h10.478v-1.996H64.036v1.996zm0-31.766h10.478v-1.996H64.036v1.996zm49.874 8.088v9.478a.998.998 0 0 1-.998.998h-7.176v7.176a.998.998 0 0 1-.998.998H95.26a.998.998 0 0 1-.998-.998v-7.176h-7.175a.998.998 0 0 1-.998-.998v-9.478c0-.551.447-.998.998-.998h7.175v-7.175c0-.551.447-.998.998-.998h9.478c.551 0 .998.447.998.998v7.175h7.176c.551 0 .998.447.998.998zm-1.996.998h-7.176a.998.998 0 0 1-.998-.998v-7.175h-7.481v7.175a.998.998 0 0 1-.998.998h-7.175v7.481h7.175c.551 0 .998.447.998.998v7.176h7.481v-7.176c0-.551.447-.998.998-.998h7.176v-7.481z" fill="#000010" data-color="1"></path>
        <path d="M103.74 110.362v-7.175h-7.481v7.175a.998.998 0 0 1-.998.998h-7.175v7.481h7.175c.551 0 .998.447.998.998v7.176h7.481v-7.176c0-.551.447-.998.998-.998h7.176v-7.481h-7.176a.998.998 0 0 1-.998-.998z" fill="#E60000" data-color="2"></path>
    </g>
</svg>