<svg preserveAspectRatio="xMidYMid meet" data-bbox="42 20 116 160.1" viewBox="42 20 116 160.1" height="200" width="200" xmlns="http://www.w3.org/2000/svg" data-type="color" role="presentation" aria-hidden="true" aria-label="">
    <g>
        <path d="M100 20c-32 0-58 26.1-58 58.3v43.5c0 32.1 26 58.3 58 58.3s58-26.1 58-58.3V78.3c0-32.2-26-58.3-58-58.3zm54.6 101.7c0 30.3-24.5 54.9-54.6 54.9S45.4 152 45.4 121.7V78.3c0-30.3 24.5-54.9 54.6-54.9s54.6 24.6 54.6 54.9v43.4zm-16.8-12h-20.5l10.2-50.1 10.3 50.1zm11.6 3.5h-9.6l4.8-23.5 4.8 23.5zm-3.1 2.9h-3.4v6.9c-4.8-1.6-9.6-3-14.5-4.2h1.1v-6.1h-3.4v5.6c-4.9-1.2-9.9-2.2-14.8-3v-4.9h-3.4v4.3c-11-1.7-22.3-2.5-33.9-2.7v-8.7l-4.9-9.1-4.9 9.1v8.8c-1.6 0-3.1.1-4.7.2v-9l-4.9-9.1-4.9 9.1v17.4c0 28.2 22.8 51.1 50.9 51.1 25.5 0 47.2-19.2 50.5-44.6l.2-1.3-1.2-.5c-1.2-.5-2.5-.9-3.7-1.4l-.1-7.9zm-92.7 11.4c-.3-2.2-.5-4.5-.5-6.8V116c6.2-.5 12.4-.7 18.6-.7 24.8 0 48.8 3.7 70 10.7-30.4 1.5-58.5 8.4-81.3 19.9-2.9-4.7-5-9.8-6.2-15.2 5.4-1 26.8-4.6 49-3.9l.1-3.4c-22.5-.6-44.1 3-49.7 4.1zm14.3-21.8h2.5v4.9h-2.5v-4.9zm-14.5 0h2.5v4.9h-2.5v-4.9zm47.2 62.7c-15.7 0-29.7-7.7-38.4-19.6 22.4-11.2 49.9-17.9 79.7-19.4 1.8-.1 3.6-.2 5.4-.2-.5 2.5-1.1 5-2 7.5-40.8 3.6-66.6 15.7-66.9 15.9l1.4 3.1c.2-.1 24.8-11.6 64-15.4-7.4 16.7-24.1 28.1-43.2 28.1zm13.9-61h-9.8l4.9-24 4.9 24zM71.1 69.1c4.9 0 8.8-4 8.8-8.9s-4-8.9-8.8-8.9-8.8 4-8.8 8.9 3.9 8.9 8.8 8.9zm0-14.4c3 0 5.5 2.5 5.5 5.5s-2.4 5.5-5.5 5.5c-3 0-5.5-2.5-5.5-5.5s2.5-5.5 5.5-5.5zm24.1 10.9c1.5 0 1.4 2.3 0 2.3-1.5 0-1.5-2.3 0-2.3zm12.9-7.6c1.5 0 1.4 2.3 0 2.3-1.4-.1-1.4-2.3 0-2.3zM107 71.8c1.5 0 1.4 2.3 0 2.3-1.5 0-1.5-2.3 0-2.3zm-19.4 8.5h.3c1.5 0 1.4 2.3 0 2.3h-.3c-1.5 0-1.5-2.3 0-2.3zm4.2-31.1c1.5 0 1.4 2.3 0 2.3-1.5 0-1.5-2.3 0-2.3zm-20.3 26c1.5 0 1.4 2.3 0 2.3s-1.4-2.3 0-2.3zm7.9-38.1c1.5 0 1.4 2.3 0 2.3-1.4-.1-1.4-2.3 0-2.3zM54.6 76.4c1.5 0 1.4 2.3 0 2.3-1.4-.1-1.4-2.3 0-2.3zm7.7 12.2l.6-.6c1-1 2.6.6 1.6 1.6l-.6.6c-1 1-2.6-.6-1.6-1.6zm34-51.8c1.5 0 1.4 2.3 0 2.3-1.5-.1-1.5-2.3 0-2.3zm27 10.2c1.5 0 1.4 2.3 0 2.3-1.5-.1-1.5-2.3 0-2.3zm20.8 25.4c1.5 0 1.4 2.3 0 2.3s-1.4-2.3 0-2.3zM96.9 83.1c1.5 0 1.4 2.3 0 2.3-1.5 0-1.5-2.3 0-2.3zM89 72.4c1.5 0 1.4 2.3 0 2.3-1.5 0-1.5-2.3 0-2.3z" fill="#F98109" data-color="1"></path>
    </g>
</svg>