<svg preserveAspectRatio="xMidYMid meet" data-bbox="29.5 15.5 141 169" viewBox="29.5 15.5 141 169" height="200" width="200" xmlns="http://www.w3.org/2000/svg" data-type="color" role="presentation" aria-hidden="true" aria-label="">
    <g>
        <path d="M100.001 162.301c-34.125 0-61.889-27.935-61.889-62.272s27.764-62.275 61.889-62.275 61.887 27.937 61.887 62.275-27.762 62.272-61.887 62.272zm0-122.037c-32.751 0-59.394 26.809-59.394 59.764 0 32.953 26.643 59.762 59.394 59.762 32.749 0 59.392-26.809 59.392-59.762 0-32.954-26.643-59.764-59.392-59.764z" fill="#CCCCCC" data-color="1"></path>
        <path d="M100.001 86.696c6.493 0 11.775 5.315 11.775 11.849 0 6.533-5.282 11.849-11.775 11.849s-11.775-5.315-11.775-11.849c-.001-6.534 5.282-11.849 11.775-11.849m0-2.511c-7.881 0-14.27 6.429-14.27 14.359s6.389 14.359 14.27 14.359 14.27-6.429 14.27-14.359-6.389-14.359-14.27-14.359z" fill="#CCCCCC" data-color="1"></path>
        <path d="M107.934 167.996c-.185.022-.374.029-.559.049a67.197 67.197 0 0 1-3.246.283 68.57 68.57 0 0 1-4.127.129c-37.499 0-68.006-30.697-68.006-68.428 0-28.604 17.924-54.433 44.604-64.27l-.858-2.358C48.082 43.599 29.5 70.376 29.5 100.029c0 39.116 31.628 70.938 70.501 70.938.53 0 1.062-.034 1.593-.046l-11.731 11.804 1.764 1.775 13.668-13.754.016-.001 2.634-2.65-.011-.099z" fill="#FF342B" data-color="2"></path>
        <path d="M100.001 29.088c-.18 0-.361.013-.541.014l11.754-11.828-1.758-1.769-.006-.005-13.637 13.723L93.4 31.65l.005.006-.291.293c.179-.018.361-.025.541-.042a69.396 69.396 0 0 1 3.3-.229 68.924 68.924 0 0 1 3.046-.079c37.497 0 68.004 30.697 68.004 68.43 0 29.526-18.691 55.621-46.511 64.94l.789 2.383c28.838-9.661 48.217-36.716 48.217-67.322 0-39.117-31.625-70.942-70.499-70.942z" fill="#FF342B" data-color="2"></path>
    </g>
</svg>