<svg preserveAspectRatio="xMidYMid meet" data-bbox="22 22 156 156" viewBox="22 22 156 156" height="200" width="200" xmlns="http://www.w3.org/2000/svg" data-type="color" role="presentation" aria-hidden="true" aria-label="">
    <g>
        <path d="M160.7 52l-.6-.7.1-.1-.8-1C144.7 32.3 122.9 22 99.7 22c-22.9 0-44.4 10-59 27.5-.4 1.2-1.1 2.2-1.9 3.2C28 66.3 22 83.2 22 100.6c0 42.7 35 77.4 78 77.4s78-34.7 78-77.4c0-17.6-6.2-34.9-17.3-48.6zm-61-27.4c22.3 0 43.2 9.8 57.3 27l-.4.4c-13.9 16.6-34.3 26.1-56 26.1-22.1 0-42.7-9.8-56.6-26.8l-.7-.9C57.4 34 77.9 24.6 99.7 24.6zm-74.2 87.8c-.6-3.8-.9-7.7-.9-11.7 0-18.2 6.5-34.8 17.4-47.8C55.4 69.3 75.8 80 98.7 80.6v67.1c-28.5-.5-55.1-13.3-73.2-35.3zm74.5 63c-35.9 0-65.9-24.8-73.5-58.1 18.4 20.6 44.4 32.5 72.2 32.9h2.6v-36.1h72.8c-6.4 34.9-37.1 61.3-74.1 61.3zm1.3-63.8v-31c23.1-.2 43.6-10.6 57.3-27 10.5 12.8 16.8 29.2 16.8 47 0 3.7-.3 7.4-.8 11h-73.3z" fill="#F98109" data-color="1"></path>
        <path d="M100 61.3c5 0 9.1-4 9.1-9s-4.1-9-9.1-9-9.1 4-9.1 9 4.1 9 9.1 9zm0-15.4c3.6 0 6.5 2.9 6.5 6.4 0 3.6-2.9 6.4-6.5 6.4s-6.5-2.9-6.5-6.4c0-3.6 2.9-6.4 6.5-6.4z" fill="#41CFD6" data-color="2"></path>
    </g>
</svg>